# xmcd CD database file
#
# Track frame offsets:
#	150
#	21947
#	41527
#	56665
#	71677
#	85960
#	103130
#	114740
#	132097
#	149662
#	167967
#	181522
#	201855
#	218277
#
# Disc length: 3101 seconds
#
# Revision: 0
# Processed by: cddbd v1.4PL0 Copyright (c) Steve Scherf et al.
# Submitted via: CDex 1.50Beta7
#
DISCID=ca0c1b0e
DTITLE=VARIADOS - PER AMORE - As mais belas canções italianas
DYEAR=1900
DGENRE=Blues
TTITLE0=PER AMORE -Mayra Ziese
TTITLE1=FACILE - Irene Fargo
TTITLE2=DIO,  COMO TI AMO - Domenico Modugno
TTITLE3=LEGATA A UN GRANELLO DI SABBIA - Nico Fidengo
TTITLE4=AMORE SCUSAMI - Umberto Marcato
TTITLE5=L'ULTIMO ROMANTICO - Pino Donaggio
TTITLE6=IL MONDO - Jimmy Fontana
TTITLE7=AMORE BELISSIMO - Wess and Dori Chessi
TTITLE8=ROMANTICA - Umberto Marcato
TTITLE9=TORNERO - Umberto Marcato
TTITLE10=IO TI DARÒ DI PIÙ - Memo Remigi
TTITLE11=ARRIVEDERCI ROMA - Nino Di Carlo
TTITLE12=MAI - Nino Di Carlo
TTITLE13=MANUELA - Umberto Marcato
EXTD=
EXTT0=
EXTT1=
EXTT2=
EXTT3=
EXTT4=
EXTT5=
EXTT6=
EXTT7=
EXTT8=
EXTT9=
EXTT10=
EXTT11=
EXTT12=
EXTT13=
PLAYORDER=
